<svg width="18" height="18" viewBox="0 0 18 18" fill="none" xmlns="http://www.w3.org/2000/svg">
<path fill-rule="evenodd" clip-rule="evenodd" d="M17.7286 9.10117C17.7286 13.866 13.8659 17.7286 9.10111 17.7286C4.33629 17.7286 0.473633 13.866 0.473633 9.10117C0.473633 4.33635 4.33629 0.473694 9.10111 0.473694C13.8659 0.473694 17.7286 4.33635 17.7286 9.10117ZM9.92786 6.45386C8.4457 7.09407 4.17209 8.91221 4.17209 8.91221C3.15928 9.32194 3.75211 9.70605 3.75211 9.70605C3.75211 9.70605 4.61671 10.0134 5.35783 10.2438C6.09891 10.4743 6.49416 10.2182 6.49416 10.2182C6.49416 10.2182 8.22337 9.04026 9.97726 7.78546C11.2124 6.91481 10.916 7.63182 10.6195 7.93913C9.97726 8.60493 8.91505 9.65484 8.02573 10.4999C7.6305 10.8584 7.82811 11.1657 8.00104 11.3193C8.50396 11.7605 9.68846 12.5628 10.2262 12.927C10.3752 13.0279 10.4746 13.0952 10.496 13.1119C10.6195 13.2143 11.3112 13.6753 11.7312 13.5728C12.1511 13.4704 12.2005 12.8814 12.2005 12.8814C12.2005 12.8814 12.5217 10.7816 12.8181 8.86099C12.873 8.4839 12.9279 8.11473 12.9791 7.77048C13.1122 6.87571 13.2202 6.1494 13.2381 5.89048C13.3122 5.01983 12.4229 5.37832 12.4229 5.37832C12.4229 5.37832 10.496 6.1978 9.92786 6.45386Z" fill="#272727"/>
</svg>
